# 3ds Max Wavefront OBJ Exporter v0.97b - (c)2007 guruware
# File Created: 04.12.2019 20:57:54

#
# object Base
#

v  -31.6297 -1.5874 48.6554
v  42.2467 -1.5874 48.6554
v  42.2467 16.8180 48.6554
v  -31.6297 16.8180 48.6554
v  -33.1231 17.7778 47.3939
v  43.7400 17.7778 47.3939
v  43.7400 -4.8408 47.3939
v  -33.1231 -4.8408 47.3939
v  43.7400 -4.8408 68.1331
v  43.7400 17.7778 68.1331
v  -33.1231 -4.8408 68.1331
v  -33.1231 17.7778 68.1331
v  42.2466 -1.5874 68.1331
v  -31.6297 -1.5874 68.1331
v  42.2466 16.8180 68.1331
v  -31.6297 16.8180 68.1331
v  -31.6297 18.7376 48.6554
v  42.2467 18.7376 48.6554
v  42.2467 37.1430 48.6554
v  -31.6297 37.1430 48.6554
v  -33.1231 38.1028 47.3939
v  43.7400 38.1028 47.3939
v  43.7400 38.1028 68.1331
v  -33.1231 38.1028 68.1331
v  42.2466 18.7376 68.1331
v  -31.6297 18.7376 68.1331
v  42.2466 37.1430 68.1331
v  -31.6297 37.1430 68.1331
v  -31.6297 39.0626 48.6554
v  42.2467 39.0626 48.6554
v  42.2467 57.4680 48.6554
v  -31.6297 57.4680 48.6554
v  -33.1231 58.4278 47.3940
v  43.7400 58.4278 47.3940
v  43.7400 58.4278 68.1331
v  -33.1231 58.4278 68.1331
v  42.2466 39.0626 68.1331
v  -31.6297 39.0626 68.1331
v  42.2466 57.4680 68.1331
v  -31.6297 57.4680 68.1331
v  -31.6297 59.3876 48.6554
v  42.2467 59.3876 48.6554
v  42.2467 77.7930 48.6554
v  -31.6297 77.7930 48.6554
v  -33.1231 78.7528 47.3940
v  43.7400 78.7528 47.3940
v  43.7400 78.7528 68.1331
v  -33.1231 78.7528 68.1331
v  42.2466 59.3876 68.1331
v  -31.6297 59.3876 68.1331
v  42.2466 77.7930 68.1331
v  -31.6297 77.7930 68.1331
v  -31.6297 79.7126 48.6554
v  42.2467 79.7126 48.6554
v  42.2467 98.1180 48.6554
v  -31.6297 98.1180 48.6554
v  -33.7302 101.5062 69.1955
v  44.3471 101.5062 69.1955
v  44.3471 101.5062 46.3315
v  -33.7302 101.5062 46.3315
v  -33.1231 99.5464 47.3940
v  43.7400 99.5464 47.3940
v  43.7400 99.5464 68.1331
v  -33.1231 99.5464 68.1331
v  42.2466 79.7126 68.1331
v  -31.6297 79.7126 68.1331
v  42.2466 98.1180 68.1331
v  -31.6297 98.1180 68.1331
v  44.3471 99.5464 69.1955
v  -33.7302 99.5464 69.1955
v  44.3471 99.5464 46.3315
v  -33.7302 99.5464 46.3315
v  -31.5043 39.1465 62.4223
v  -8.1125 39.1465 62.4223
v  -8.1125 55.3940 62.4223
v  -31.5043 55.3940 62.4223
v  -8.1125 55.3940 51.2549
v  -31.5043 55.3940 51.2549
v  -8.1125 39.1465 51.2549
v  -31.5043 39.1465 51.2549
v  18.5218 -1.5779 62.4223
v  41.9136 -1.5779 62.4223
v  41.9136 14.6696 62.4223
v  18.5218 14.6696 62.4223
v  41.9136 14.6696 51.2549
v  18.5218 14.6696 51.2549
v  41.9136 -1.5779 51.2549
v  18.5218 -1.5779 51.2549
v  14.8968 59.3621 62.4223
v  38.2886 59.3621 62.4223
v  38.2886 75.6096 62.4223
v  14.8968 75.6096 62.4223
v  38.2886 75.6096 51.2549
v  14.8968 75.6096 51.2549
v  38.2886 59.3621 51.2549
v  14.8968 59.3621 51.2549
v  8.3015 60.0148 60.6494
v  10.6200 59.3849 60.6494
v  14.8797 75.0641 60.6494
v  12.5611 75.6940 60.6494
v  14.8797 75.0641 49.4820
v  12.5611 75.6940 49.4820
v  10.6200 59.3849 49.4820
v  8.3015 60.0148 49.4820
v  -2.5133 39.0571 63.5860
v  -0.2556 39.8789 63.5860
v  -5.8126 55.1465 63.5860
v  -8.0703 54.3248 63.5860
v  -5.8126 55.1465 52.4187
v  -8.0703 54.3248 52.4187
v  -0.2556 39.8789 52.4187
v  -2.5133 39.0571 52.4187
v  4.0233 39.0281 62.0620
v  5.3888 39.9842 62.0620
v  -2.8292 51.7208 62.0620
v  -4.1948 50.7647 62.0620
v  -2.8292 51.7208 52.4380
v  -4.1948 50.7647 52.4380
v  5.3888 39.9842 52.4380
v  4.0233 39.0281 52.4380
v  10.5370 -0.8196 64.0117
v  12.7947 -1.6413 64.0117
v  18.3517 13.6263 64.0117
v  16.0940 14.4481 64.0117
v  18.3517 13.6263 52.8443
v  16.0940 14.4481 52.8443
v  12.7947 -1.6413 52.8443
v  10.5370 -0.8196 52.8443
v  -31.5043 79.7069 61.0259
v  -8.1125 79.7069 61.0259
v  -8.1125 95.9544 61.0259
v  -31.5043 95.9544 61.0259
v  -8.1125 95.9544 49.8586
v  -31.5043 95.9544 49.8586
v  -8.1125 79.7069 49.8586
v  -31.5043 79.7069 49.8586
v  5.9281 79.7330 65.7955
v  5.9281 81.4000 65.7955
v  -7.7015 81.4000 61.3777
v  -7.7015 79.7330 61.3777
v  -4.7341 81.4000 52.2226
v  -4.7341 79.7330 52.2226
v  8.8956 81.4000 56.6405
v  8.8956 79.7330 56.6405
v  -12.8150 18.6000 62.4223
v  10.5768 18.6000 62.4223
v  10.5768 34.8475 62.4223
v  -12.8150 34.8475 62.4223
v  10.5768 34.8475 51.2549
v  -12.8150 34.8475 51.2549
v  10.5768 18.6000 51.2549
v  -12.8150 18.6000 51.2549
v  -16.6834 18.6722 69.9231
v  -16.6834 20.3392 69.9231
v  -30.3130 20.3392 65.5053
v  -30.3130 18.6722 65.5053
v  -27.3455 20.3392 56.3503
v  -27.3455 18.6722 56.3503
v  -13.7159 20.3392 60.7681
v  -13.7159 18.6722 60.7681
v  16.7363 18.5469 64.4059
v  18.2471 19.2514 64.4059
v  12.1920 32.2368 64.4059
v  10.6811 31.5323 64.4059
v  12.1920 32.2368 54.7819
v  10.6811 31.5323 54.7819
v  18.2471 19.2514 54.7819
v  16.7363 18.5469 54.7819
# 168 vertices

vn 0.0000 -0.0000 1.0000
vn 0.0000 0.0000 -1.0000
vn 1.0000 0.0000 0.0000
vn -1.0000 -0.0000 -0.0000
vn -0.0000 -0.0000 1.0000
vn 0.0000 1.0000 -0.0000
vn -1.0000 0.0000 -0.0000
vn 0.0000 -1.0000 -0.0000
vn 1.0000 0.0000 -0.0000
vn 0.0000 0.0000 1.0000
vn 0.0000 1.0000 0.0000
vn 1.0000 -0.0000 -0.0000
vn -1.0000 0.0000 0.0000
vn -0.0000 -1.0000 -0.0000
vn 0.0000 -1.0000 0.0000
vn 1.0000 -0.0000 0.0000
vn 0.0000 -0.0000 -1.0000
vn -1.0000 -0.0000 0.0000
vn 0.2622 0.9650 0.0000
vn -0.2622 -0.9650 -0.0000
vn 0.9650 -0.2622 -0.0000
vn -0.9650 0.2622 0.0000
vn -0.3420 0.9397 0.0000
vn 0.3420 -0.9397 -0.0000
vn 0.9397 0.3420 0.0000
vn -0.9397 -0.3420 -0.0000
vn -0.5736 0.8192 0.0000
vn -0.0000 0.0000 -1.0000
vn 0.5736 -0.8192 -0.0000
vn 0.8192 0.5736 0.0000
vn -0.8192 -0.5736 -0.0000
vn 0.3420 0.9397 0.0000
vn -0.3420 -0.9397 -0.0000
vn 0.9397 -0.3420 -0.0000
vn -0.9397 0.3420 0.0000
vn -0.3083 -0.0000 0.9513
vn -0.9513 0.0000 -0.3083
vn 0.3083 0.0000 -0.9513
vn 0.9513 -0.0000 0.3083
vn 0.3083 -0.0000 -0.9513
vn -0.4226 0.9063 0.0000
vn 0.4226 -0.9063 -0.0000
vn 0.9063 0.4226 0.0000
vn -0.9063 -0.4226 -0.0000
# 44 vertex normals

vt 3.5402 0.0000 0.0000
vt 4.5402 0.0000 0.0000
vt 4.5402 0.2319 0.0000
vt 3.5402 0.2319 0.0000
vt -2.4331 0.2706 0.0000
vt -1.4331 0.2706 0.0000
vt -1.4331 0.0000 0.0000
vt -2.4331 0.0000 0.0000
vt -1.0116 0.0000 0.0000
vt -0.4915 0.0000 0.0000
vt -0.4915 0.2706 0.0000
vt -1.0116 0.2706 0.0000
vt -1.4442 0.0389 0.0000
vt -2.4220 0.0389 0.0000
vt -1.4442 0.2591 0.0000
vt -2.4220 0.2591 0.0000
vt -0.4738 0.9881 0.0000
vt -0.4738 0.0102 0.0000
vt 0.0406 0.0102 0.0000
vt 0.0406 0.9881 0.0000
vt 2.3883 0.0000 0.0000
vt 2.3883 0.2319 0.0000
vt 3.3883 0.2319 0.0000
vt 3.3883 0.0000 0.0000
vt 0.0546 -0.0009 0.0000
vt -0.4738 -0.0009 0.0000
vt -0.4738 0.9991 0.0000
vt 0.0546 0.9991 0.0000
vt 3.5402 0.2560 0.0000
vt 4.5402 0.2560 0.0000
vt 4.5402 0.4879 0.0000
vt 3.5402 0.4879 0.0000
vt -2.4331 0.5137 0.0000
vt -1.4331 0.5137 0.0000
vt -0.4915 0.5137 0.0000
vt -1.0116 0.5137 0.0000
vt -1.4442 0.2821 0.0000
vt -2.4220 0.2821 0.0000
vt -1.4442 0.5022 0.0000
vt -2.4220 0.5022 0.0000
vt 2.3883 0.2560 0.0000
vt 2.3883 0.4879 0.0000
vt 3.3883 0.4879 0.0000
vt 3.3883 0.2560 0.0000
vt 3.5402 0.5121 0.0000
vt 4.5402 0.5121 0.0000
vt 4.5402 0.7440 0.0000
vt 3.5402 0.7440 0.0000
vt -2.4331 0.7569 0.0000
vt -1.4331 0.7569 0.0000
vt -0.4915 0.7569 0.0000
vt -1.0116 0.7569 0.0000
vt -1.4442 0.5252 0.0000
vt -2.4220 0.5252 0.0000
vt -1.4442 0.7454 0.0000
vt -2.4220 0.7454 0.0000
vt 2.3883 0.5121 0.0000
vt 2.3883 0.7440 0.0000
vt 3.3883 0.7440 0.0000
vt 3.3883 0.5121 0.0000
vt 3.5402 0.7681 0.0000
vt 4.5402 0.7681 0.0000
vt 4.5402 1.0000 0.0000
vt 3.5402 1.0000 0.0000
vt -2.4331 1.0000 0.0000
vt -1.4331 1.0000 0.0000
vt -0.4915 1.0000 0.0000
vt -1.0116 1.0000 0.0000
vt -1.4442 0.7683 0.0000
vt -2.4220 0.7683 0.0000
vt -1.4442 0.9885 0.0000
vt -2.4220 0.9885 0.0000
vt 2.3883 0.7681 0.0000
vt 2.3883 1.0000 0.0000
vt 3.3883 1.0000 0.0000
vt 3.3883 0.7681 0.0000
vt 0.0108 0.0214 0.0000
vt 0.9892 0.0214 0.0000
vt 1.0000 -0.0000 0.0000
vt 0.0000 -0.0000 0.0000
vt 0.9892 0.9786 0.0000
vt 1.0000 1.0000 0.0000
vt 0.0108 0.9786 0.0000
vt 0.0000 1.0000 0.0000
vt 0.0155 0.4898 0.0000
vt 0.9845 0.4898 0.0000
vt 0.9845 0.5102 0.0000
vt 0.0155 0.5102 0.0000
vt 0.2380 0.4898 0.0000
vt 0.7301 0.4898 0.0000
vt 0.7301 0.5102 0.0000
vt 0.2380 0.5102 0.0000
vt 0.0000 0.0000 0.0000
vt 1.0000 0.0000 0.0000
vt 0.4171 0.0000 0.0000
vt 0.5316 0.0000 0.0000
vt 0.5316 1.0000 0.0000
vt 0.4171 1.0000 0.0000
vt 0.5304 -0.0000 0.0000
vt 0.4206 -0.0000 0.0000
vt 0.4206 0.9614 0.0000
vt 0.5304 0.9614 0.0000
vt 0.4206 0.0386 0.0000
vt 0.5304 0.0386 0.0000
vt 0.5304 1.0000 0.0000
vt 0.4206 1.0000 0.0000
vt 0.2068 0.0000 0.0000
vt 0.3293 0.0000 0.0000
vt 0.3293 1.0000 0.0000
vt 0.2068 1.0000 0.0000
vt 0.2105 -0.0000 0.0000
vt 0.3280 -0.0000 0.0000
vt 0.3280 1.0000 0.0000
vt 0.2105 1.0000 0.0000
vt 0.2105 0.0000 0.0000
vt 0.3280 0.0000 0.0000
vt 0.3335 0.0000 0.0000
vt 0.4162 0.0000 0.0000
vt 0.4162 1.0000 0.0000
vt 0.3335 1.0000 0.0000
vt 0.3360 -0.0000 0.0000
vt 0.4153 -0.0000 0.0000
vt 0.4153 1.0000 0.0000
vt 0.3360 1.0000 0.0000
vt 0.3360 0.0000 0.0000
vt 0.4153 0.0000 0.0000
vt 0.7159 0.0000 0.0000
vt 0.8018 0.0000 0.0000
vt 0.8018 1.0000 0.0000
vt 0.7159 1.0000 0.0000
vt 0.7185 -0.0000 0.0000
vt 0.8009 -0.0000 0.0000
vt 0.8009 1.0000 0.0000
vt 0.7185 1.0000 0.0000
vt 0.7185 0.0000 0.0000
vt 0.8009 0.0000 0.0000
vt 0.1153 0.0000 0.0000
vt 0.2037 0.0000 0.0000
vt 0.2037 1.0000 0.0000
vt 0.1153 1.0000 0.0000
vt 0.1180 -0.0000 0.0000
vt 0.2028 -0.0000 0.0000
vt 0.2028 1.0000 0.0000
vt 0.1180 1.0000 0.0000
vt 0.1180 0.0000 0.0000
vt 0.2028 0.0000 0.0000
# 146 texture coords

o Base
g Base
f 1/1/1 2/2/1 3/3/1 
f 3/3/1 4/4/1 1/1/1 
f 5/5/2 6/6/2 7/7/2 
f 7/7/2 8/8/2 5/5/2 
f 9/9/3 7/10/3 6/11/3 
f 6/11/3 10/12/3 9/9/3 
f 8/10/4 11/9/4 12/12/4 
f 12/12/4 5/11/4 8/10/4 
f 11/8/1 9/7/1 13/13/1 
f 13/13/1 14/14/1 11/8/1 
f 9/7/5 10/6/5 15/15/5 
f 15/15/5 13/13/5 9/7/5 
f 10/6/1 12/5/1 16/16/1 
f 16/16/1 15/15/1 10/6/1 
f 12/5/1 11/8/1 14/14/1 
f 14/14/1 16/16/1 12/5/1 
f 14/17/6 13/18/6 2/19/6 
f 2/19/6 1/20/6 14/17/6 
f 13/21/7 15/22/7 3/23/7 
f 3/23/7 2/24/7 13/21/7 
f 15/18/8 16/17/8 4/20/8 
f 4/20/8 3/19/8 15/18/8 
f 16/22/9 14/21/9 1/24/9 
f 1/24/9 4/23/9 16/22/9 
f 7/25/8 9/26/8 11/27/8 
f 11/27/8 8/28/8 7/25/8 
f 17/29/1 18/30/1 19/31/1 
f 19/31/1 20/32/1 17/29/1 
f 21/33/2 22/34/2 6/6/2 
f 6/6/2 5/5/2 21/33/2 
f 10/12/9 6/11/9 22/35/9 
f 22/35/9 23/36/9 10/12/9 
f 5/11/7 12/12/7 24/36/7 
f 24/36/7 21/35/7 5/11/7 
f 12/5/10 10/6/10 25/37/10 
f 25/37/10 26/38/10 12/5/10 
f 10/6/5 23/34/5 27/39/5 
f 27/39/5 25/37/5 10/6/5 
f 23/34/1 24/33/1 28/40/1 
f 28/40/1 27/39/1 23/34/1 
f 24/33/1 12/5/1 26/38/1 
f 26/38/1 28/40/1 24/33/1 
f 26/17/11 25/18/11 18/19/11 
f 18/19/11 17/20/11 26/17/11 
f 25/41/7 27/42/7 19/43/7 
f 19/43/7 18/44/7 25/41/7 
f 27/18/8 28/17/8 20/20/8 
f 20/20/8 19/19/8 27/18/8 
f 28/42/9 26/41/9 17/44/9 
f 17/44/9 20/43/9 28/42/9 
f 29/45/1 30/46/1 31/47/1 
f 31/47/1 32/48/1 29/45/1 
f 33/49/2 34/50/2 22/34/2 
f 22/34/2 21/33/2 33/49/2 
f 23/36/9 22/35/9 34/51/9 
f 34/51/9 35/52/9 23/36/9 
f 21/35/7 24/36/7 36/52/7 
f 36/52/7 33/51/7 21/35/7 
f 24/33/10 23/34/10 37/53/10 
f 37/53/10 38/54/10 24/33/10 
f 23/34/5 35/50/5 39/55/5 
f 39/55/5 37/53/5 23/34/5 
f 35/50/1 36/49/1 40/56/1 
f 40/56/1 39/55/1 35/50/1 
f 36/49/1 24/33/1 38/54/1 
f 38/54/1 40/56/1 36/49/1 
f 38/17/11 37/18/11 30/19/11 
f 30/19/11 29/20/11 38/17/11 
f 37/57/7 39/58/7 31/59/7 
f 31/59/7 30/60/7 37/57/7 
f 39/18/8 40/17/8 32/20/8 
f 32/20/8 31/19/8 39/18/8 
f 40/58/9 38/57/9 29/60/9 
f 29/60/9 32/59/9 40/58/9 
f 41/45/1 42/46/1 43/47/1 
f 43/47/1 44/48/1 41/45/1 
f 45/49/2 46/50/2 34/34/2 
f 34/34/2 33/33/2 45/49/2 
f 35/36/9 34/35/9 46/51/9 
f 46/51/9 47/52/9 35/36/9 
f 33/35/7 36/36/7 48/52/7 
f 48/52/7 45/51/7 33/35/7 
f 36/33/10 35/34/10 49/53/10 
f 49/53/10 50/54/10 36/33/10 
f 35/34/5 47/50/5 51/55/5 
f 51/55/5 49/53/5 35/34/5 
f 47/50/1 48/49/1 52/56/1 
f 52/56/1 51/55/1 47/50/1 
f 48/49/1 36/33/1 50/54/1 
f 50/54/1 52/56/1 48/49/1 
f 50/17/11 49/18/11 42/19/11 
f 42/19/11 41/20/11 50/17/11 
f 49/57/7 51/58/7 43/59/7 
f 43/59/7 42/60/7 49/57/7 
f 51/18/8 52/17/8 44/20/8 
f 44/20/8 43/19/8 51/18/8 
f 52/58/9 50/57/9 41/60/9 
f 41/60/9 44/59/9 52/58/9 
f 53/61/1 54/62/1 55/63/1 
f 55/63/1 56/64/1 53/61/1 
f 57/27/11 58/26/11 59/25/11 
f 59/25/11 60/28/11 57/27/11 
f 61/65/2 62/66/2 46/50/2 
f 46/50/2 45/49/2 61/65/2 
f 47/52/12 46/51/12 62/67/12 
f 62/67/12 63/68/12 47/52/12 
f 45/51/13 48/52/13 64/68/13 
f 64/68/13 61/67/13 45/51/13 
f 48/49/10 47/50/10 65/69/10 
f 65/69/10 66/70/10 48/49/10 
f 47/50/5 63/66/5 67/71/5 
f 67/71/5 65/69/5 47/50/5 
f 63/66/1 64/65/1 68/72/1 
f 68/72/1 67/71/1 63/66/1 
f 64/65/1 48/49/1 66/70/1 
f 66/70/1 68/72/1 64/65/1 
f 66/17/11 65/18/11 54/19/11 
f 54/19/11 53/20/11 66/17/11 
f 65/73/7 67/74/7 55/75/7 
f 55/75/7 54/76/7 65/73/7 
f 67/18/8 68/17/8 56/20/8 
f 56/20/8 55/19/8 67/18/8 
f 68/74/9 66/73/9 53/76/9 
f 53/76/9 56/75/9 68/74/9 
f 64/77/8 63/78/8 69/79/8 
f 69/79/8 70/80/8 64/77/8 
f 63/78/14 62/81/14 71/82/14 
f 71/82/14 69/79/14 63/78/14 
f 62/81/15 61/83/15 72/84/15 
f 72/84/15 71/82/15 62/81/15 
f 61/83/15 64/77/15 70/80/15 
f 70/80/15 72/84/15 61/83/15 
f 70/85/1 69/86/1 58/87/1 
f 58/87/1 57/88/1 70/85/1 
f 69/89/16 71/90/16 59/91/16 
f 59/91/16 58/92/16 69/89/16 
f 71/86/17 72/85/17 60/88/17 
f 60/88/17 59/87/17 71/86/17 
f 72/90/18 70/89/18 57/92/18 
f 57/92/18 60/91/18 72/90/18 
f 73/93/1 74/94/1 75/82/1 
f 75/82/1 76/84/1 73/93/1 
f 76/84/11 75/82/11 77/82/11 
f 77/82/11 78/84/11 76/84/11 
f 74/94/9 79/94/9 77/82/9 
f 77/82/9 75/82/9 74/94/9 
f 80/93/7 73/93/7 76/84/7 
f 76/84/7 78/84/7 80/93/7 
f 81/93/1 82/94/1 83/82/1 
f 83/82/1 84/84/1 81/93/1 
f 84/84/11 83/82/11 85/82/11 
f 85/82/11 86/84/11 84/84/11 
f 82/94/9 87/94/9 85/82/9 
f 85/82/9 83/82/9 82/94/9 
f 88/93/7 81/93/7 84/84/7 
f 84/84/7 86/84/7 88/93/7 
f 89/93/1 90/94/1 91/82/1 
f 91/82/1 92/84/1 89/93/1 
f 92/84/11 91/82/11 93/82/11 
f 93/82/11 94/84/11 92/84/11 
f 90/94/9 95/94/9 93/82/9 
f 93/82/9 91/82/9 90/94/9 
f 96/93/7 89/93/7 92/84/7 
f 92/84/7 94/84/7 96/93/7 
f 97/95/1 98/96/1 99/97/1 
f 99/97/1 100/98/1 97/95/1 
f 100/98/19 99/97/19 101/97/19 
f 101/97/19 102/98/19 100/98/19 
f 102/98/2 101/97/2 103/96/2 
f 103/96/2 104/95/2 102/98/2 
f 104/95/20 103/96/20 98/96/20 
f 98/96/20 97/95/20 104/95/20 
f 98/99/21 103/100/21 101/101/21 
f 101/101/21 99/102/21 98/99/21 
f 104/103/22 97/104/22 100/105/22 
f 100/105/22 102/106/22 104/103/22 
f 105/107/1 106/108/1 107/109/1 
f 107/109/1 108/110/1 105/107/1 
f 108/110/23 107/109/23 109/109/23 
f 109/109/23 110/110/23 108/110/23 
f 110/110/2 109/109/2 111/108/2 
f 111/108/2 112/107/2 110/110/2 
f 112/107/24 111/108/24 106/108/24 
f 106/108/24 105/107/24 112/107/24 
f 106/111/25 111/112/25 109/113/25 
f 109/113/25 107/114/25 106/111/25 
f 112/115/26 105/116/26 108/113/26 
f 108/113/26 110/114/26 112/115/26 
f 113/117/5 114/118/5 115/119/5 
f 115/119/5 116/120/5 113/117/5 
f 116/120/27 115/119/27 117/119/27 
f 117/119/27 118/120/27 116/120/27 
f 118/120/28 117/119/28 119/118/28 
f 119/118/28 120/117/28 118/120/28 
f 120/117/29 119/118/29 114/118/29 
f 114/118/29 113/117/29 120/117/29 
f 114/121/30 119/122/30 117/123/30 
f 117/123/30 115/124/30 114/121/30 
f 120/125/31 113/126/31 116/123/31 
f 116/123/31 118/124/31 120/125/31 
f 121/127/1 122/128/1 123/129/1 
f 123/129/1 124/130/1 121/127/1 
f 124/130/32 123/129/32 125/129/32 
f 125/129/32 126/130/32 124/130/32 
f 126/130/2 125/129/2 127/128/2 
f 127/128/2 128/127/2 126/130/2 
f 128/127/33 127/128/33 122/128/33 
f 122/128/33 121/127/33 128/127/33 
f 122/131/34 127/132/34 125/133/34 
f 125/133/34 123/134/34 122/131/34 
f 128/135/35 121/136/35 124/133/35 
f 124/133/35 126/134/35 128/135/35 
f 129/93/1 130/94/1 131/82/1 
f 131/82/1 132/84/1 129/93/1 
f 132/84/11 131/82/11 133/82/11 
f 133/82/11 134/84/11 132/84/11 
f 130/94/9 135/94/9 133/82/9 
f 133/82/9 131/82/9 130/94/9 
f 136/93/7 129/93/7 132/84/7 
f 132/84/7 134/84/7 136/93/7 
f 137/117/36 138/118/36 139/119/36 
f 139/119/36 140/120/36 137/117/36 
f 140/120/37 139/119/37 141/119/37 
f 141/119/37 142/120/37 140/120/37 
f 142/120/38 141/119/38 143/118/38 
f 143/118/38 144/117/38 142/120/38 
f 144/117/39 143/118/39 138/118/39 
f 138/118/39 137/117/39 144/117/39 
f 138/121/11 143/122/11 141/123/11 
f 141/123/11 139/124/11 138/121/11 
f 144/125/14 137/126/14 140/123/14 
f 140/123/14 142/124/14 144/125/14 
f 145/93/1 146/94/1 147/82/1 
f 147/82/1 148/84/1 145/93/1 
f 148/84/11 147/82/11 149/82/11 
f 149/82/11 150/84/11 148/84/11 
f 146/94/9 151/94/9 149/82/9 
f 149/82/9 147/82/9 146/94/9 
f 152/93/7 145/93/7 148/84/7 
f 148/84/7 150/84/7 152/93/7 
f 153/137/36 154/138/36 155/139/36 
f 155/139/36 156/140/36 153/137/36 
f 156/140/37 155/139/37 157/139/37 
f 157/139/37 158/140/37 156/140/37 
f 158/140/40 157/139/40 159/138/40 
f 159/138/40 160/137/40 158/140/40 
f 160/137/39 159/138/39 154/138/39 
f 154/138/39 153/137/39 160/137/39 
f 154/141/11 159/142/11 157/143/11 
f 157/143/11 155/144/11 154/141/11 
f 160/145/14 153/146/14 156/143/14 
f 156/143/14 158/144/14 160/145/14 
f 161/137/1 162/138/1 163/139/1 
f 163/139/1 164/140/1 161/137/1 
f 164/140/41 163/139/41 165/139/41 
f 165/139/41 166/140/41 164/140/41 
f 166/140/2 165/139/2 167/138/2 
f 167/138/2 168/137/2 166/140/2 
f 168/137/42 167/138/42 162/138/42 
f 162/138/42 161/137/42 168/137/42 
f 162/141/43 167/142/43 165/143/43 
f 165/143/43 163/144/43 162/141/43 
f 168/145/44 161/146/44 164/143/44 
f 164/143/44 166/144/44 168/145/44 
# 264 faces

