####
#
# OBJ File Generated by Meshlab
#
####
# Object Screen.obj
#
# Vertices: 112
# Faces: 188
#
####
mtllib ./Screen.obj.mtl

vn 0.911377 0.007937 0.411497
v -76.415154 167.503662 0.717842 0.752941 0.752941 0.752941
vn -0.911396 0.004507 -0.411505
v -77.924538 167.503662 -0.594244 0.752941 0.752941 0.752941
vn -0.656035 -0.005467 0.754711
v -77.373062 0.005450 1.210084 0.752941 0.752941 0.752941
vn 0.656063 -0.005466 -0.754686
v -76.513817 0.005450 -0.692960 0.752941 0.752941 0.752941
vn -0.713029 0.666672 0.217115
v -28.194599 167.505005 0.024800 0.752941 0.752941 0.752941
vn 0.265895 0.408244 0.873291
v -26.817900 167.505005 1.475500 0.752941 0.752941 0.752941
vn 0.713029 0.666672 -0.217115
v -25.367100 167.505005 0.098800 0.752941 0.752941 0.752941
vn -0.265895 0.408244 -0.873291
v -26.743799 167.505005 -1.351900 0.752941 0.752941 0.752941
vn -0.700687 -0.666672 -0.254140
v -28.194599 0.004900 0.024800 0.752941 0.752941 0.752941
vn -0.311241 -0.408244 0.858176
v -26.817900 0.004900 1.475500 0.752941 0.752941 0.752941
vn 0.700687 -0.666672 0.254140
v -25.367100 0.004900 0.098800 0.752941 0.752941 0.752941
vn 0.311241 -0.408244 -0.858176
v -26.743799 0.004900 -1.351900 0.752941 0.752941 0.752941
vn 0.359720 -0.710179 -0.605184
v -35.245998 2.493500 -8.187500 0.752941 0.752941 0.752941
vn 0.846525 -0.422113 -0.324371
v -27.224899 2.493500 -1.109700 0.752941 0.752941 0.752941
vn 0.228981 -0.653012 0.721902
v -27.930300 2.493500 -0.451600 0.752941 0.752941 0.752941
vn -0.416298 -0.710131 0.567812
v -35.824600 2.493500 -7.443500 0.752941 0.752941 0.752941
vn 0.169835 -0.710615 -0.682776
v -43.162102 2.493500 -11.946600 0.752941 0.752941 0.752941
vn -0.239693 -0.710649 0.661457
v -43.567200 2.493500 -11.158900 0.752941 0.752941 0.752941
vn -0.027441 -0.710017 -0.703650
v -50.749298 2.493500 -13.050800 0.752941 0.752941 0.752941
vn -0.037024 -0.710283 0.702942
v -50.950802 2.493500 -12.253100 0.752941 0.752941 0.752941
vn -0.139023 -0.834351 -0.533415
v -57.783600 2.493500 -12.163900 0.752941 0.752941 0.752941
vn -0.341628 -0.710020 -0.615762
v -68.177666 2.492162 -7.956039 0.752941 0.752941 0.752941
vn 0.220394 -0.604069 0.765851
v -59.112011 2.493500 -11.125997 0.752941 0.752941 0.752941
vn -0.553000 -0.702052 -0.448681
v -76.767799 2.492991 -1.105161 0.752941 0.752941 0.752941
vn 0.453239 -0.556541 0.696302
v -70.080849 2.492937 -5.636396 0.752941 0.752941 0.752941
vn 0.855189 0.422113 0.300786
v -27.224899 164.993698 -1.109700 0.752941 0.752941 0.752941
vn -0.210232 0.653012 0.727584
v -27.930300 164.993698 -0.451600 0.752941 0.752941 0.752941
vn 0.414802 0.710179 -0.568846
v -35.245998 164.993698 -8.187500 0.752941 0.752941 0.752941
vn 0.237330 0.710615 -0.662346
v -43.162102 164.993698 -11.946600 0.752941 0.752941 0.752941
vn 0.036263 0.710182 -0.703084
v -50.749298 164.993698 -13.050800 0.752941 0.752941 0.752941
vn -0.191958 0.711550 -0.675906
v -59.172085 164.993698 -11.904516 0.752941 0.752941 0.752941
vn -0.501228 0.560479 -0.659267
v -71.088966 164.993256 -5.966349 0.752941 0.752941 0.752941
vn 0.318150 0.695887 0.643834
v -76.206062 164.993820 -0.551314 0.752941 0.752941 0.752941
vn 0.343665 0.709014 0.615787
v -67.797295 164.992081 -7.232725 0.752941 0.752941 0.752941
vn 0.180798 0.709970 0.680628
v -57.767799 164.993698 -11.381300 0.752941 0.752941 0.752941
vn 0.027710 0.710235 0.703419
v -50.950802 164.993698 -12.253100 0.752941 0.752941 0.752941
vn -0.171935 0.710649 0.682214
v -43.567200 164.993698 -11.158900 0.752941 0.752941 0.752941
vn -0.361763 0.710130 0.604022
v -35.824501 164.993698 -7.443400 0.752941 0.752941 0.752941
vn -0.984675 0.006821 0.174265
v 76.369347 167.505005 0.595101 0.752941 0.752941 0.752941
vn 0.984675 0.006821 -0.174265
v 77.878746 167.505005 -0.717000 0.752941 0.752941 0.752941
vn -0.656053 -0.004269 -0.754703
v 76.920822 0.004900 -1.209278 0.752941 0.752941 0.752941
vn 0.656053 -0.004269 0.754703
v 77.327278 0.004900 1.087380 0.752941 0.752941 0.752941
vn -0.713034 0.666669 -0.217106
v 25.321301 167.505005 -0.023900 0.752941 0.752941 0.752941
vn -0.265888 0.408248 0.873291
v 26.772100 167.505005 1.352800 0.752941 0.752941 0.752941
vn 0.713034 0.666669 0.217106
v 28.148800 167.505005 -0.098000 0.752941 0.752941 0.752941
vn 0.265888 0.408248 -0.873291
v 26.698000 167.505005 -1.474700 0.752941 0.752941 0.752941
vn 0.311253 -0.408246 0.858171
v 26.772100 0.004900 1.352700 0.752941 0.752941 0.752941
vn 0.700687 -0.666672 -0.254140
v 28.148800 0.004900 -0.098000 0.752941 0.752941 0.752941
vn -0.700687 -0.666672 0.254140
v 25.321301 0.004900 -0.024000 0.752941 0.752941 0.752941
vn -0.311253 -0.408246 -0.858171
v 26.698000 0.004900 -1.474700 0.752941 0.752941 0.752941
vn -0.229001 -0.653018 0.721891
v 27.884501 2.493500 -0.574400 0.752941 0.752941 0.752941
vn -0.846525 -0.422113 -0.324371
v 27.179100 2.493500 -1.232500 0.752941 0.752941 0.752941
vn -0.359720 -0.710179 -0.605184
v 35.200199 2.493500 -8.310300 0.752941 0.752941 0.752941
vn 0.416300 -0.710131 0.567811
v 35.778702 2.493500 -7.566200 0.752941 0.752941 0.752941
vn -0.169835 -0.710615 -0.682776
v 43.116299 2.493500 -12.069400 0.752941 0.752941 0.752941
vn 0.239689 -0.710649 0.661458
v 43.521400 2.493500 -11.281700 0.752941 0.752941 0.752941
vn 0.027441 -0.710017 -0.703650
v 50.703499 2.493500 -13.173600 0.752941 0.752941 0.752941
vn 0.037014 -0.710202 0.703024
v 50.904999 2.493500 -12.375800 0.752941 0.752941 0.752941
vn 0.134892 -0.834228 -0.534666
v 57.737801 2.493500 -12.286700 0.752941 0.752941 0.752941
vn -0.217123 -0.603883 0.766931
v 59.066776 2.494198 -11.248590 0.752941 0.752941 0.752941
vn 0.337037 -0.709666 -0.618693
v 67.057892 2.495223 -8.686570 0.752941 0.752941 0.752941
vn 0.523143 -0.703702 -0.480754
v 76.552483 2.495806 -1.125625 0.752941 0.752941 0.752941
vn -0.451535 -0.556709 0.697274
v 70.035637 2.493773 -5.758734 0.752941 0.752941 0.752941
vn -0.855201 0.422107 0.300760
v 27.179100 164.993698 -1.232500 0.752941 0.752941 0.752941
vn 0.210219 0.653023 0.727578
v 27.884501 164.993698 -0.574300 0.752941 0.752941 0.752941
vn -0.414802 0.710179 -0.568846
v 35.200199 164.993698 -8.310300 0.752941 0.752941 0.752941
vn -0.237330 0.710615 -0.662345
v 43.116299 164.993698 -12.069400 0.752941 0.752941 0.752941
vn -0.036263 0.710182 -0.703084
v 50.703499 164.993698 -13.173600 0.752941 0.752941 0.752941
vn 0.188255 0.710894 -0.677635
v 59.126282 164.993698 -12.027317 0.752941 0.752941 0.752941
vn 0.491381 0.558627 -0.668192
v 70.508202 164.994232 -6.460634 0.752941 0.752941 0.752941
vn -0.335386 0.699426 0.631126
v 76.312538 164.994629 -0.780933 0.752941 0.752941 0.752941
vn -0.334154 0.709349 0.620617
v 66.718063 164.994217 -7.954802 0.752941 0.752941 0.752941
vn -0.175337 0.709664 0.682374
v 57.722000 164.993698 -11.504000 0.752941 0.752941 0.752941
vn -0.027711 0.710235 0.703419
v 50.904999 164.993698 -12.375800 0.752941 0.752941 0.752941
vn 0.171930 0.710649 0.682216
v 43.521400 164.993698 -11.281600 0.752941 0.752941 0.752941
vn 0.361763 0.710131 0.604022
v 35.778702 164.993698 -7.566200 0.752941 0.752941 0.752941
vn 0.445845 0.465282 -0.764680
v 25.095501 167.505005 0.205200 0.752941 0.752941 0.752941
vn -0.856995 0.487404 -0.167325
v 23.783400 167.505005 1.714700 0.752941 0.752941 0.752941
vn 0.320538 0.505289 0.801211
v 25.948959 167.503922 2.272059 0.752941 0.752941 0.752941
vn -0.314551 -0.437805 -0.842250
v 25.095501 0.004900 0.205200 0.752941 0.752941 0.752941
vn -0.534935 -0.513260 0.671126
v 23.783400 0.004900 1.714600 0.752941 0.752941 0.752941
vn 0.858633 -0.512582 0.002969
v 26.342506 0.003959 1.819174 0.752941 0.752941 0.752941
vn -0.217051 0.004259 -0.976151
v -25.883167 167.505783 0.890657 0.752941 0.752941 0.752941
vn 0.217074 0.006101 0.976136
v -24.071239 167.505005 1.928340 0.752941 0.752941 0.752941
vn 0.496965 -0.005422 -0.867754
v -24.056446 0.004900 1.362834 0.752941 0.752941 0.752941
vn -0.496961 -0.001991 0.867771
v -26.333233 0.005366 1.869117 0.752941 0.752941 0.752941
vn -0.359718 -0.710179 0.605185
v -16.729700 2.493500 9.865300 0.752941 0.752941 0.752941
vn -0.846524 -0.422123 0.324359
v -24.750799 2.493500 2.787500 0.752941 0.752941 0.752941
vn -0.228945 -0.653002 -0.721923
v -24.045300 2.493500 2.129400 0.752941 0.752941 0.752941
vn 0.416300 -0.710130 -0.567811
v -16.151100 2.493500 9.121200 0.752941 0.752941 0.752941
vn -0.169835 -0.710614 0.682776
v -8.813500 2.493500 13.624400 0.752941 0.752941 0.752941
vn 0.239693 -0.710650 -0.661456
v -8.408500 2.493500 12.836700 0.752941 0.752941 0.752941
vn 0.027439 -0.710017 0.703650
v -1.226400 2.493500 14.728600 0.752941 0.752941 0.752941
vn 0.037024 -0.710279 -0.702946
v -1.024900 2.493500 13.930800 0.752941 0.752941 0.752941
vn 0.139086 -0.834312 0.533458
v 5.808000 2.493500 13.841700 0.752941 0.752941 0.752941
vn 0.341824 -0.709745 0.615969
v 16.202175 2.493500 9.633651 0.752941 0.752941 0.752941
vn -0.221736 -0.604248 -0.765322
v 7.136570 2.493531 12.803755 0.752941 0.752941 0.752941
vn -0.450807 -0.556178 -0.698168
v 18.620031 2.493500 6.946942 0.752941 0.752941 0.752941
vn 0.542737 -0.702106 0.460960
v 24.792192 2.494156 2.782845 0.752941 0.752941 0.752941
vn -0.855167 0.422123 -0.300834
v -24.750799 164.993698 2.787500 0.752941 0.752941 0.752941
vn 0.210245 0.653002 -0.727588
v -24.045300 164.993698 2.129400 0.752941 0.752941 0.752941
vn -0.414801 0.710179 0.568846
v -16.729700 164.993698 9.865300 0.752941 0.752941 0.752941
vn -0.237328 0.710614 0.662346
v -8.813500 164.993698 13.624400 0.752941 0.752941 0.752941
vn -0.036265 0.710182 0.703084
v -1.226400 164.993698 14.728600 0.752941 0.752941 0.752941
vn 0.192152 0.711197 0.676222
v 7.196368 164.993698 13.582344 0.752941 0.752941 0.752941
vn 0.496205 0.559151 0.664177
v 19.113960 164.993698 7.643690 0.752941 0.752941 0.752941
vn -0.320248 0.697867 -0.640643
v 24.382633 164.994980 2.335978 0.752941 0.752941 0.752941
vn -0.341744 0.709334 -0.616487
v 15.821758 164.993698 8.910439 0.752941 0.752941 0.752941
vn -0.180834 0.710002 -0.680585
v 5.792200 164.993698 13.059100 0.752941 0.752941 0.752941
vn -0.027707 0.710235 -0.703419
v -1.024900 164.993698 13.930900 0.752941 0.752941 0.752941
vn 0.171933 0.710649 -0.682214
v -8.408500 164.993698 12.836700 0.752941 0.752941 0.752941
vn 0.361766 0.710130 -0.604020
v -16.151100 164.993698 9.121200 0.752941 0.752941 0.752941
# 112 vertices, 0 vertices normals


usemtl material_0
vt 0.028400 0.000000
vt 0.053000 0.000000
vt 0.053000 1.000000
f 3/1/3 4/2/4 1/3/1
vt 0.000000 1.000000
vt 0.000000 0.000000
vt 0.028400 1.000000
f 2/4/2 3/5/3 1/6/1
vt 0.024700 0.000000
f 4/7/4 3/5/3 2/4/2
vt 0.024700 1.000000
f 1/3/1 4/2/4 2/8/2
vt 0.946900 1.000000
vt 0.972700 1.000000
vt 1.000000 1.000000
f 5/9/5 6/10/6 7/11/7
vt 0.974100 1.000000
f 5/9/5 7/11/7 8/12/8
vt 0.946900 0.000000
vt 0.972700 0.000000
f 5/9/5 9/13/9 10/14/10
f 5/9/5 10/14/10 6/10/6
vt 1.000000 0.000000
f 6/10/6 10/14/10 11/15/11
f 6/10/6 11/15/11 7/11/7
vt 0.974100 0.000000
f 7/11/7 11/15/11 12/16/12
f 7/11/7 12/16/12 8/12/8
f 8/12/8 12/16/12 9/13/9
f 8/12/8 9/13/9 5/9/5
f 9/13/9 12/16/12 11/15/11
f 9/13/9 11/15/11 10/14/10
vt 0.814400 0.014900
vt 0.965100 0.014900
vt 0.951800 0.014900
f 13/17/13 14/18/14 15/19/15
vt 0.803500 0.014900
f 13/17/13 15/19/15 16/20/16
vt 0.665600 0.014900
f 17/21/17 13/17/13 16/20/16
vt 0.658000 0.014900
f 17/21/17 16/20/16 18/22/18
vt 0.523000 0.014900
f 19/23/19 17/21/17 18/22/18
vt 0.519200 0.014900
f 19/23/19 18/22/18 20/24/20
vt 0.390800 0.014900
f 21/25/21 19/23/19 20/24/20
vt 0.391100 0.014900
f 21/25/21 20/24/20 23/26/23
vt 0.273200 0.014900
f 22/27/22 21/25/21 23/26/23
vt 0.174400 0.014900
vt 0.277600 0.014900
vt 0.182400 0.014900
f 22/28/22 23/29/23 25/30/25
vt 0.063200 0.014900
vt 0.050100 0.014900
vt 0.098700 0.014900
f 25/31/25 24/32/24 22/33/22
vt 0.965100 0.985000
f 15/19/15 14/18/14 26/34/26
vt 0.951800 0.985000
f 15/19/15 26/34/26 27/35/27
vt 0.814400 0.985000
f 14/18/14 13/17/13 28/36/28
f 14/18/14 28/36/28 26/34/26
vt 0.665600 0.985000
f 13/17/13 17/21/17 29/37/29
f 13/17/13 29/37/29 28/36/28
vt 0.523000 0.985000
f 17/21/17 19/23/19 30/38/30
f 17/21/17 30/38/30 29/37/29
vt 0.390800 0.985000
f 19/23/19 21/25/21 31/39/31
f 19/23/19 31/39/31 30/38/30
vt 0.273200 0.985000
f 21/25/21 22/27/22 31/40/31
vt 0.174400 0.985000
f 22/27/22 32/41/32 31/40/31
vt 0.050100 0.985000
f 22/33/22 24/32/24 32/42/32
vt 0.033000 0.985000
f 24/32/24 33/43/33 32/42/32
vt 0.046800 0.014900
vt 0.063200 0.985000
f 24/44/24 25/31/25 33/45/33
vt 0.109700 0.985000
f 25/31/25 34/46/34 33/45/33
vt 0.277600 0.985000
f 25/30/25 23/29/23 34/47/34
vt 0.391100 0.985000
f 23/29/23 35/48/35 34/47/34
vt 0.519200 0.985000
f 23/26/23 20/24/20 36/49/36
f 23/26/23 36/49/36 35/48/35
vt 0.658000 0.985000
f 20/24/20 18/22/18 37/50/37
f 20/24/20 37/50/37 36/49/36
vt 0.803500 0.985000
f 18/22/18 16/20/16 38/51/38
f 18/22/18 38/51/38 37/50/37
f 16/20/16 15/19/15 27/35/27
f 16/20/16 27/35/27 38/51/38
f 27/35/27 26/34/26 28/36/28
f 38/51/38 27/35/27 28/36/28
f 38/51/38 28/36/28 29/37/29
f 37/50/37 38/51/38 29/37/29
f 37/50/37 29/37/29 30/38/30
f 36/49/36 37/50/37 30/38/30
f 36/49/36 30/38/30 31/39/31
f 35/48/35 36/49/36 31/39/31
f 34/47/34 35/48/35 31/40/31
f 34/47/34 31/40/31 32/41/32
vt 0.098700 0.985000
f 32/52/32 33/45/33 34/46/34
f 39/3/39 41/2/41 42/1/42
f 39/6/39 42/5/42 40/4/40
f 40/4/40 42/5/42 41/7/41
f 40/8/40 41/2/41 39/3/39
f 43/11/43 44/10/44 45/9/45
f 46/12/46 43/11/43 45/9/45
f 47/14/47 48/13/48 45/9/45
f 44/10/44 47/14/47 45/9/45
f 49/15/49 47/14/47 44/10/44
f 43/11/43 49/15/49 44/10/44
f 50/16/50 49/15/49 43/11/43
f 46/12/46 50/16/50 43/11/43
f 48/13/48 50/16/50 46/12/46
f 45/9/45 48/13/48 46/12/46
f 49/15/49 50/16/50 48/13/48
f 47/14/47 49/15/49 48/13/48
f 51/19/51 52/18/52 53/17/53
f 54/20/54 51/19/51 53/17/53
f 54/20/54 53/17/53 55/21/55
f 56/22/56 54/20/54 55/21/55
f 56/22/56 55/21/55 57/23/57
f 58/24/58 56/22/56 57/23/57
f 58/24/58 57/23/57 59/25/59
f 60/26/60 58/24/58 59/25/59
f 60/26/60 59/25/59 61/27/61
f 63/30/63 60/29/60 61/28/61
f 61/33/61 62/32/62 63/31/63
f 64/34/64 52/18/52 51/19/51
f 65/35/65 64/34/64 51/19/51
f 66/36/66 53/17/53 52/18/52
f 64/34/64 66/36/66 52/18/52
f 67/37/67 55/21/55 53/17/53
f 66/36/66 67/37/67 53/17/53
f 68/38/68 57/23/57 55/21/55
f 67/37/67 68/38/68 55/21/55
f 69/39/69 59/25/59 57/23/57
f 68/38/68 69/39/69 57/23/57
f 69/40/69 61/27/61 59/25/59
f 69/40/69 70/41/70 61/27/61
f 70/42/70 62/32/62 61/33/61
f 70/42/70 71/43/71 62/32/62
f 71/45/71 63/31/63 62/44/62
f 71/45/71 72/46/72 63/31/63
f 72/47/72 60/29/60 63/30/63
f 72/47/72 73/48/73 60/29/60
f 74/49/74 58/24/58 60/26/60
f 73/48/73 74/49/74 60/26/60
f 75/50/75 56/22/56 58/24/58
f 74/49/74 75/50/75 58/24/58
f 76/51/76 54/20/54 56/22/56
f 75/50/75 76/51/76 56/22/56
f 65/35/65 51/19/51 54/20/54
f 76/51/76 65/35/65 54/20/54
f 66/36/66 64/34/64 65/35/65
f 66/36/66 65/35/65 76/51/76
f 67/37/67 66/36/66 76/51/76
f 67/37/67 76/51/76 75/50/75
f 68/38/68 67/37/67 75/50/75
f 68/38/68 75/50/75 74/49/74
f 69/39/69 68/38/68 74/49/74
f 69/39/69 74/49/74 73/48/73
f 69/40/69 73/48/73 72/47/72
f 70/41/70 69/40/69 72/47/72
f 72/46/72 71/45/71 70/52/70
f 79/4/79 77/6/77 78/3/78
f 80/1/80 81/2/81 78/3/78
f 77/6/77 80/1/80 78/3/78
f 82/5/82 80/1/80 77/6/77
f 79/4/79 82/5/82 77/6/77
f 81/2/81 82/7/82 79/8/79
f 78/3/78 81/2/81 79/8/79
f 80/1/80 82/5/82 81/2/81
f 84/9/84 85/14/85 83/10/83
f 83/10/83 85/14/85 86/15/86
f 83/11/83 86/16/86 84/12/84
f 84/12/84 86/16/86 85/13/85
f 87/17/87 88/18/88 89/19/89
f 87/17/87 89/19/89 90/20/90
f 91/21/91 87/17/87 90/20/90
f 91/21/91 90/20/90 92/22/92
f 93/23/93 91/21/91 92/22/92
f 93/23/93 92/22/92 94/24/94
f 95/25/95 93/23/93 94/24/94
f 95/25/95 94/24/94 97/26/97
f 96/27/96 95/25/95 97/26/97
f 96/28/96 97/29/97 98/30/98
f 98/31/98 99/32/99 96/33/96
f 89/19/89 88/18/88 100/34/100
f 89/19/89 100/34/100 101/35/101
f 88/18/88 87/17/87 102/36/102
f 88/18/88 102/36/102 100/34/100
f 87/17/87 91/21/91 103/37/103
f 87/17/87 103/37/103 102/36/102
f 91/21/91 93/23/93 104/38/104
f 91/21/91 104/38/104 103/37/103
f 93/23/93 95/25/95 105/39/105
f 93/23/93 105/39/105 104/38/104
f 95/25/95 96/27/96 105/40/105
f 96/27/96 106/41/106 105/40/105
f 96/33/96 99/32/99 106/42/106
f 99/32/99 107/43/107 106/42/106
f 99/44/99 98/31/98 107/45/107
f 98/31/98 108/46/108 107/45/107
f 98/30/98 97/29/97 108/47/108
f 97/29/97 109/48/109 108/47/108
f 97/26/97 94/24/94 110/49/110
f 97/26/97 110/49/110 109/48/109
f 94/24/94 92/22/92 111/50/111
f 94/24/94 111/50/111 110/49/110
f 92/22/92 90/20/90 112/51/112
f 92/22/92 112/51/112 111/50/111
f 90/20/90 89/19/89 101/35/101
f 90/20/90 101/35/101 112/51/112
f 101/35/101 100/34/100 102/36/102
f 112/51/112 101/35/101 102/36/102
f 112/51/112 102/36/102 103/37/103
f 111/50/111 112/51/112 103/37/103
f 111/50/111 103/37/103 104/38/104
f 110/49/110 111/50/111 104/38/104
f 110/49/110 104/38/104 105/39/105
f 109/48/109 110/49/110 105/39/105
f 108/47/108 109/48/109 105/40/105
f 108/47/108 105/40/105 106/41/106
f 106/52/106 107/45/107 108/46/108
# 188 faces, 52 coords texture

# End of File
